# xmcd
#
# Track frame offsets:
# 182
# 16032
# 28275
# 37760
# 50540
# 63625
# 77485
# 95357
# 108520
# 119012
# 130787
# 140322
#
# Disc length: 2019 seconds
#
#
# Revision: 0
# Processed by: cddbd v1.5.2PL0 Copyright (c) Steve Scherf et al.
# Submitted via: FreeRIP 2.96 
#
DISCID=9907e10c
DTITLE=Forró Flor de Cheiro - Forró Flor de Cheiro
DYEAR=1994
DGENRE=Forró
TTITLE0=Vem Vaqueiro
TTITLE1=Com Você No Coração
TTITLE2=Cantorias e Vaquejadas
TTITLE3=Canção da Estrada
TTITLE4=Sonho de Amor
TTITLE5=Só Ilusão
TTITLE6=Dói de Mais
TTITLE7=Meu Xodó
TTITLE8=Feitiço
TTITLE9=O Vaqueiro e a Matutinha
TTITLE10=Menino Lindo
TTITLE11=O Que Será Que Você Tem
EXTD=
EXTT0=
EXTT1=
EXTT2=
EXTT3=
EXTT4=
EXTT5=
EXTT6=
EXTT7=
EXTT8=
EXTT9=
EXTT10=
EXTT11=
PLAYORDER=
